<svg xmlns="http://www.w3.org/2000/svg" viewBox="0 0 400 300" width="400" height="300">
  <!-- Background -->
  <rect width="400" height="300" fill="white"/>
  
  <!-- Africa Map Outline (simplified, using dots pattern) -->
  <!-- West Africa -->
  <circle cx="180" cy="120" r="2" fill="black"/>
  <circle cx="175" cy="115" r="2" fill="black"/>
  <circle cx="185" cy="115" r="2" fill="black"/>
  <circle cx="170" cy="120" r="2" fill="black"/>
  <circle cx="190" cy="120" r="2" fill="black"/>
  <circle cx="180" cy="110" r="2" fill="black"/>
  <circle cx="180" cy="130" r="2" fill="black"/>
  <circle cx="165" cy="125" r="2" fill="black"/>
  <circle cx="195" cy="125" r="2" fill="black"/>
  
  <!-- Central Africa -->
  <circle cx="200" cy="140" r="2" fill="black"/>
  <circle cx="195" cy="135" r="2" fill="black"/>
  <circle cx="205" cy="135" r="2" fill="black"/>
  <circle cx="200" cy="145" r="2" fill="black"/>
  <circle cx="210" cy="140" r="2" fill="black"/>
  <circle cx="190" cy="140" r="2" fill="black"/>
  <circle cx="200" cy="150" r="2" fill="black"/>
  <circle cx="215" cy="145" r="2" fill="black"/>
  
  <!-- East Africa -->
  <circle cx="240" cy="150" r="2" fill="black"/>
  <circle cx="235" cy="145" r="2" fill="black"/>
  <circle cx="245" cy="145" r="2" fill="black"/>
  <circle cx="240" cy="155" r="2" fill="black"/>
  <circle cx="250" cy="150" r="2" fill="black"/>
  <circle cx="230" cy="150" r="2" fill="black"/>
  
  <!-- North Africa -->
  <circle cx="200" cy="80" r="2" fill="black"/>
  <circle cx="195" cy="75" r="2" fill="black"/>
  <circle cx="205" cy="75" r="2" fill="black"/>
  <circle cx="210" cy="80" r="2" fill="black"/>
  <circle cx="190" cy="80" r="2" fill="black"/>
  <circle cx="200" cy="85" r="2" fill="black"/>
  
  <!-- Southern Africa -->
  <circle cx="210" cy="200" r="2" fill="black"/>
  <circle cx="205" cy="195" r="2" fill="black"/>
  <circle cx="215" cy="195" r="2" fill="black"/>
  <circle cx="210" cy="205" r="2" fill="black"/>
  <circle cx="200" cy="200" r="2" fill="black"/>
  <circle cx="220" cy="200" r="2" fill="black"/>
  
  <!-- Madagascar -->
  <circle cx="260" cy="190" r="2" fill="black"/>
  <circle cx="260" cy="185" r="2" fill="black"/>
  <circle cx="260" cy="195" r="2" fill="black"/>
  <circle cx="265" cy="190" r="2" fill="black"/>
  <circle cx="255" cy="190" r="2" fill="black"/>
  
  <!-- Additional dots to create a more complete Africa shape -->
  <circle cx="185" cy="105" r="2" fill="black"/>
  <circle cx="190" cy="110" r="2" fill="black"/>
  <circle cx="175" cy="130" r="2" fill="black"/>
  <circle cx="185" cy="135" r="2" fill="black"/>
  <circle cx="195" cy="150" r="2" fill="black"/>
  <circle cx="225" cy="155" r="2" fill="black"/>
  <circle cx="245" cy="155" r="2" fill="black"/>
  <circle cx="195" cy="90" r="2" fill="black"/>
  <circle cx="215" cy="90" r="2" fill="black"/>
  <circle cx="195" cy="170" r="2" fill="black"/>
  <circle cx="215" cy="180" r="2" fill="black"/>
  <circle cx="225" cy="175" r="2" fill="black"/>
  
  <!-- More dots for fuller representation -->
  <circle cx="178" cy="118" r="2" fill="black"/>
  <circle cx="182" cy="122" r="2" fill="black"/>
  <circle cx="188" cy="118" r="2" fill="black"/>
  <circle cx="198" cy="138" r="2" fill="black"/>
  <circle cx="202" cy="142" r="2" fill="black"/>
  <circle cx="208" cy="138" r="2" fill="black"/>
  <circle cx="238" cy="148" r="2" fill="black"/>
  <circle cx="242" cy="152" r="2" fill="black"/>
  <circle cx="248" cy="148" r="2" fill="black"/>
  <circle cx="198" cy="78" r="2" fill="black"/>
  <circle cx="202" cy="82" r="2" fill="black"/>
  <circle cx="208" cy="78" r="2" fill="black"/>
  <circle cx="205" cy="198" r="2" fill="black"/>
  <circle cx="212" cy="202" r="2" fill="black"/>
  <circle cx="218" cy="198" r="2" fill="black"/>
  
  <!-- Text: INOV TECHNOLOGY -->
  <text x="200" y="250" font-family="Arial, sans-serif" font-size="32" font-weight="bold" text-anchor="middle" fill="black" letter-spacing="2">INOV TECHNOLOGY</text>
</svg>

